<svg width="16" height="16" viewBox="0 0 16 16" fill="none" xmlns="http://www.w3.org/2000/svg">
    <g clip-path="url(#clip0_1290_1173)">
        <path
            d="M13.2767 8.05172C13.6855 8.05172 14.0189 8.37452 14.0189 8.77041V13.3627C14.0189 13.7586 13.6855 14.0814 13.2767 14.0814H2.72327C2.31447 14.0814 1.98113 13.7586 1.98113 13.3627V8.77041C1.98113 8.37452 2.31447 8.05172 2.72327 8.05172H13.2767ZM13.2767 6.13318H2.72327C1.22013 6.13318 0 7.31475 0 8.77041V13.3627C0 14.8184 1.22013 15.9999 2.72327 15.9999H13.2767C14.7799 15.9999 16 14.8184 16 13.3627V8.77041C16 7.31475 14.7799 6.13318 13.2767 6.13318Z"
            fill="white" />
        <path
            d="M14.1635 0H1.83648C0.822219 0 0 0.796241 0 1.77845V2.69813C0 3.68035 0.822219 4.47659 1.83648 4.47659H14.1635C15.1778 4.47659 16 3.68035 16 2.69813V1.77845C16 0.796241 15.1778 0 14.1635 0Z"
            fill="white" />
    </g>
    <defs>
        <clipPath id="clip0_1290_1173">
            <rect width="16" height="16" fill="white" />
        </clipPath>
    </defs>
</svg>