<svg width="18" height="18" viewBox="0 0 18 18" fill="none" xmlns="http://www.w3.org/2000/svg">
    <path fill-rule="evenodd" clip-rule="evenodd"
        d="M0.319832 7.66039L7.29056 1.55767C8.29217 0.680809 9.71063 0.680809 10.7122 1.55767L17.6772 7.66039C18.3025 8.2077 17.9493 9.30819 17.1503 9.36115H15.3726V15.4581C15.3726 16.3644 14.6489 17.1 13.7573 17.1H12.2983C11.4067 17.1 10.683 16.3644 10.683 15.4581V13.2101C10.683 12.7334 10.3009 12.345 9.83195 12.345H8.17033C7.70136 12.345 7.31925 12.7334 7.31925 13.2101V15.517C7.31925 16.3938 6.62449 17.1 5.76183 17.1H4.22179C3.34176 17.1 2.62964 16.3762 2.62964 15.4817V9.36115H0.84669C0.0477192 9.30819 -0.305449 8.2077 0.319832 7.66039Z"
        fill="white" />
</svg>